<svg width="24" height="24" viewBox="0 0 24 24" xmlns="http://www.w3.org/2000/svg">  
  <!-- 登录图标：用户+箭头进入 -->
  <defs>
    <style>
      .primary { stroke: #1B5E20; fill: none; stroke-width: 2; stroke-linecap: round; stroke-linejoin: round; }
      .accent { fill: #FFA000; }
      .secondary { stroke: #757575; fill: none; stroke-width: 1.5; stroke-linecap: round; }
      .fill-primary { fill: #1B5E20; stroke: none; }
    </style>
  </defs>
  
  <!-- 门框/系统边界 -->
  <rect x="14" y="3" width="8" height="18" rx="2" fill="none" stroke="#E0E0E0" stroke-width="1.5"/>
  
  <!-- 用户头像 -->
  <circle cx="7" cy="8" r="3" class="primary"/>
  
  <!-- 用户身体 -->
  <path d="M2 20 C2 16 4.5 13 7 13 C9.5 13 12 16 12 20" class="primary"/>
  
  <!-- 登录箭头 -->
  <line x1="10" y1="12" x2="16" y2="12" class="primary"/>
  <path d="m14 10 2 2-2 2" class="primary"/>
  
  <!-- 手机图标（表示手机登录） -->
  <rect x="16" y="7" width="4" height="6" rx="1" class="secondary"/>
  <line x1="17" y1="11" x2="19" y2="11" class="secondary"/>
  
  <!-- 安全锁（表示安全登录） -->
  <rect x="17" y="15" width="2" height="1.5" rx="0.3" fill="#4CAF50"/>
  <path d="M17.5 15 V14.5 C17.5 14.2 17.7 14 18 14 C18.3 14 18.5 14.2 18.5 14.5 V15" stroke="#4CAF50" stroke-width="1" fill="none"/>
</svg>