<svg width="24" height="24" viewBox="0 0 24 24" xmlns="http://www.w3.org/2000/svg">
  <!-- 设置图标：简化齿轮 -->
  <defs>
    <style>
      .primary { stroke: #1B5E20; fill: none; stroke-width: 2; stroke-linecap: round; stroke-linejoin: round; }
      .accent { fill: #FFA000; }
    </style>
  </defs>
  
  <!-- 齿轮主体路径 -->
  <path d="M12.22 2h-.44a2 2 0 0 0-2 1.83l-.18 1.56a8.7 8.7 0 0 0-1.5.87L6.9 5.64a2 2 0 0 0-2.83.28l-.31.32a2 2 0 0 0-.28 2.83l.62 1.2a8.7 8.7 0 0 0-.87 1.5L1.83 12.22a2 2 0 0 0 0 4l1.56.18a8.7 8.7 0 0 0 .87 1.5l-.62 1.2a2 2 0 0 0 .28 2.83l.31.32a2 2 0 0 0 2.83.28l1.2-.62a8.7 8.7 0 0 0 1.5.87l.18 1.56a2 2 0 0 0 4 0l.18-1.56a8.7 8.7 0 0 0 1.5-.87l1.2.62a2 2 0 0 0 2.83-.28l.32-.31a2 2 0 0 0 .28-2.83l-.62-1.2a8.7 8.7 0 0 0 .87-1.5l1.56-.18a2 2 0 0 0 0-4l-1.56-.18a8.7 8.7 0 0 0-.87-1.5l.62-1.2a2 2 0 0 0-.28-2.83l-.32-.31a2 2 0 0 0-2.83-.28l-1.2.62a8.7 8.7 0 0 0-1.5-.87L14.22 2.83A2 2 0 0 0 12.22 2Z" class="primary"/>
  
  <!-- 中心圆 -->
  <circle cx="12" cy="12" r="3" class="primary"/>
  
  <!-- 中心装饰点 -->
  <circle cx="12" cy="12" r="1" class="accent"/>
</svg>